<svg width="40" height="50" viewBox="0 0 40 50" fill="none" xmlns="http://www.w3.org/2000/svg">
<path d="M27.6558 39.2436H12.9015V48.8543H27.6558V39.2436Z" fill="white"/>
<path d="M38.5101 27.2543C35.0158 26.3997 32.5739 23.3451 32.5739 19.8252V12.0133C32.5739 5.38919 27.0583 0 20.2787 0C13.4991 0 7.98351 5.38919 7.98351 12.0133V19.8252C7.98351 23.3459 5.54167 26.3997 2.04737 27.2543L0.918671 27.5298L2.11459 29.2821C3.13673 30.7806 4.53756 31.9547 6.19332 32.7107C6.30152 32.6691 6.40398 32.6178 6.5171 32.5834L16.1803 29.6329V26.1579C14.1844 25.0294 12.7204 23.1025 12.2467 20.8231H12.0819C10.2712 20.8231 8.80319 19.3887 8.80319 17.6196C8.80319 15.8504 10.2712 14.416 12.0819 14.416C12.0819 12.232 12.9786 10.2546 14.4295 8.80979H14.3475C13.9582 8.38452 13.7213 7.82309 13.7213 7.20801C13.7213 5.88093 14.8221 4.80534 16.1803 4.80534C16.8934 4.80534 17.5295 5.10647 17.9787 5.5798C18.3246 4.66198 19.2197 4.00445 20.2787 4.00445C21.3378 4.00445 22.2328 4.66198 22.5788 5.5798C23.0279 5.10647 23.664 4.80534 24.3771 4.80534C25.7353 4.80534 26.8362 5.88093 26.8362 7.20801C26.8362 7.82309 26.5993 8.38452 26.2099 8.80979H26.128C27.5788 10.2546 28.4755 12.232 28.4755 14.416C30.2862 14.416 31.7543 15.8504 31.7543 17.6196C31.7543 19.3887 30.2862 20.8231 28.4755 20.8231H28.3108C27.837 23.1025 26.3731 25.0294 24.3771 26.1579V29.6329L34.0412 32.5834C34.1535 32.6178 34.2559 32.6691 34.365 32.7107C36.0207 31.9547 37.4215 30.7806 38.4437 29.2821L39.6396 27.5298L38.5101 27.2543Z" fill="white"/>
<path d="M38.3116 37.1701C38.3116 34.7042 36.6936 32.5538 34.2854 31.8186L25.1967 29.0443V26.596C27.0082 25.4387 28.364 23.6623 28.9583 21.5768C30.9886 21.3397 32.5739 19.6659 32.5739 17.6196C32.5739 15.6734 31.1443 14.0508 29.2574 13.692C29.1025 11.8404 28.3648 10.1481 27.2164 8.797C27.4984 8.31566 27.6558 7.77106 27.6558 7.20803C27.6558 5.44127 26.1853 4.00447 24.3771 4.00447C23.8312 4.00447 23.2951 4.14142 22.8197 4.39531C22.2082 3.65769 21.2778 3.20358 20.2787 3.20358C19.2795 3.20358 18.3491 3.65769 17.7376 4.39531C17.2622 4.14142 16.7262 4.00447 16.1802 4.00447C14.372 4.00447 12.9015 5.44127 12.9015 7.20803C12.9015 7.77106 13.0589 8.31566 13.3409 8.797C12.1925 10.1489 11.4548 11.8412 11.2999 13.692C9.41296 14.0508 7.98344 15.6734 7.98344 17.6196C7.98344 19.6659 9.5687 21.3397 11.599 21.576C12.1925 23.6623 13.5491 25.4379 15.3606 26.5952V29.0435L6.27194 31.8186C3.86372 32.5538 2.24567 34.705 2.24567 37.1701V43.2481H3.88503V49.6552H36.6723V43.2481H38.3116V37.1701ZM30.5452 39.1948C31.3255 39.9572 31.7542 40.9695 31.7542 42.0467C31.7542 43.1239 31.3255 44.1363 30.5452 44.8987L29.2951 46.1201V48.0534H11.2622V46.1201L10.0121 44.8987C9.23181 44.1363 8.80312 43.1239 8.80312 42.0467C8.80312 40.9695 9.23181 39.9572 10.0121 39.1948C10.8179 38.4075 11.2622 37.3599 11.2622 36.2459V31.9731L12.9015 31.4726V37.6418H27.6558V31.4734L29.2951 31.9739V36.2467C29.2951 37.3599 29.7394 38.4075 30.5452 39.1948ZM24.3771 11.2125V12.8143H22.7377V11.2125H21.0983V12.8143H19.459V11.2125H17.8196V12.8143H16.1802V11.2125H14.5409V12.8143H13.0917C13.8401 9.6091 16.7753 7.20803 20.2787 7.20803C23.782 7.20803 26.7173 9.6091 27.4656 12.8143H26.0164V11.2125H24.3771ZM30.9345 17.6196C30.9345 18.6744 30.2304 19.5634 29.2607 19.8853C29.2779 19.6651 29.2951 19.4456 29.2951 19.2214V15.3643C30.2468 15.6959 30.9345 16.5768 30.9345 17.6196ZM26.0164 7.20803C26.0164 7.33698 25.9951 7.46352 25.964 7.58685C25.1525 6.94053 24.2221 6.43597 23.2131 6.0956C23.5271 5.78165 23.9369 5.60625 24.3771 5.60625C25.2812 5.60625 26.0164 6.32465 26.0164 7.20803ZM20.2787 4.80536C20.9082 4.80536 21.4696 5.17778 21.7385 5.73279C21.2623 5.65591 20.777 5.60625 20.2787 5.60625C19.7803 5.60625 19.295 5.65591 18.8188 5.73279C19.0877 5.17778 19.6491 4.80536 20.2787 4.80536ZM16.1802 5.60625C16.6204 5.60625 17.0303 5.78165 17.3434 6.09479C16.3343 6.43517 15.404 6.94053 14.5925 7.58605C14.5622 7.46272 14.5409 7.33698 14.5409 7.20803C14.5409 6.32465 15.2761 5.60625 16.1802 5.60625ZM9.6228 17.6196C9.6228 16.5768 10.3105 15.6959 11.2622 15.3643V19.2214C11.2622 19.4456 11.2794 19.6651 11.2966 19.8853C10.3269 19.5634 9.6228 18.6744 9.6228 17.6196ZM12.9015 19.2214V14.416H27.6558V19.2214C27.6558 23.1954 24.3467 26.4294 20.2787 26.4294C16.2106 26.4294 12.9015 23.1954 12.9015 19.2214ZM20.2787 28.0312C21.436 28.0312 22.5393 27.8093 23.5574 27.4193V29.3014L20.2787 32.5049L16.9999 29.3014V27.4193C18.018 27.8093 19.1213 28.0312 20.2787 28.0312ZM15.9516 30.542L20.2787 34.7699L24.6058 30.542L26.0164 30.9728V36.0401H14.5409V30.9728L15.9516 30.542ZM3.88503 37.1701C3.88503 35.409 5.04078 33.8729 6.76047 33.3483L9.6228 32.4737V36.2459C9.6228 36.9315 9.34902 37.577 8.85312 38.0623C7.8613 39.0314 7.28097 40.292 7.18425 41.6463H3.88503V37.1701ZM5.52439 43.2481H7.29818C7.52933 44.294 8.05967 45.2559 8.8523 46.0312L9.6228 46.7832V48.0534H5.52439V43.2481ZM35.0329 48.0534H30.9345V46.7832L31.7042 46.0312C32.4976 45.2567 33.0272 44.2948 33.2583 43.2481H35.0329V48.0534ZM36.6723 41.6463H33.3739C33.2772 40.292 32.6968 39.0314 31.705 38.0623C31.2083 37.577 30.9345 36.9323 30.9345 36.2459V32.4737L33.7968 33.3475C35.5165 33.8729 36.6723 35.409 36.6723 37.1701V41.6463Z" fill="#C8C8C8"/>
<path d="M24.377 17.6196C24.8297 17.6196 25.1967 17.261 25.1967 16.8187C25.1967 16.3764 24.8297 16.0178 24.377 16.0178C23.9243 16.0178 23.5573 16.3764 23.5573 16.8187C23.5573 17.261 23.9243 17.6196 24.377 17.6196Z" fill="#C8C8C8"/>
<path d="M16.1802 17.6196C16.6329 17.6196 16.9999 17.261 16.9999 16.8187C16.9999 16.3764 16.6329 16.0178 16.1802 16.0178C15.7275 16.0178 15.3606 16.3764 15.3606 16.8187C15.3606 17.261 15.7275 17.6196 16.1802 17.6196Z" fill="#C8C8C8"/>
<path d="M23.5574 20.8232H21.918C21.918 21.7065 21.1827 22.4249 20.2786 22.4249C19.3745 22.4249 18.6393 21.7065 18.6393 20.8232H16.9999C16.9999 22.5899 18.4704 24.0267 20.2786 24.0267C22.0869 24.0267 23.5574 22.5899 23.5574 20.8232Z" fill="#C8C8C8"/>
<path d="M22.7377 42.4471H12.9015V44.0489H22.7377V42.4471Z" fill="#C8C8C8"/>
<path d="M27.6558 42.4471H24.3771V44.0489H27.6558V42.4471Z" fill="#C8C8C8"/>
</svg>
