<svg width="39" height="50" viewBox="0 0 39 50" fill="none" xmlns="http://www.w3.org/2000/svg">
<g clip-path="url(#clip0_2_87)">
<rect width="38.7209" height="49.6552" fill="#F8F4F4"/>
<path d="M19.3538 6.00982L18.0585 5.07956L16.7619 6.00982L15.466 5.07956L14.1706 6.00982L12.8753 5.07956L11.58 6.00982L9.98939 4.8662L10.5811 3.51309L11.58 4.23077L12.8753 3.30051L14.1706 4.23077L15.466 3.30051L16.7619 4.23077L18.0585 3.30051L19.3538 4.23077L20.6485 3.30051L21.9445 4.23154L23.241 3.30128L24.5388 4.23154L25.8359 3.30128L27.1361 4.23154L28.141 3.51232L28.7303 4.86697L27.1361 6.00904L25.8359 5.07878L24.5388 6.00904L23.241 5.07878L21.9445 6.00904L20.6485 5.07956L19.3538 6.00982Z" fill="white"/>
<path d="M10.0233 9.98222L8.17434 8.65239L8.76604 7.29929L10.0233 8.20317L11.5782 7.0867L13.1324 8.20317L14.6873 7.0867L16.2422 8.20317L17.7977 7.0867L19.3532 8.20317L20.9063 7.0867L22.4612 8.20317L24.0172 7.08748L25.5746 8.20394L27.1319 7.08748L28.691 8.20394L29.9561 7.29851L30.5454 8.65317L28.691 9.98144L27.1319 8.86498L25.5746 9.98144L24.0172 8.86498L22.4612 9.98222L20.9063 8.86575L19.3532 9.98222L17.7977 8.86575L16.2422 9.98222L14.6873 8.86575L13.1324 9.98222L11.5782 8.86575L10.0233 9.98222Z" fill="white"/>
<path d="M34.4858 31.0345H37.4764L33.5868 24.0517H32.6708V20.1724H29.6457V12.4138H32.4735L27.5875 0.775848H11.1335L6.24738 12.4138H9.07521V20.1724H6.05014V24.0517H5.13354L1.2439 31.0345H4.2351V47.3276H3.02507V48.8793H35.6959V47.3276H34.4858V31.0345ZM31.4608 24.0517H30.2507V21.7241H31.4608V24.0517ZM27.8307 21.7241H29.0407V24.0517H27.8307V21.7241ZM11.8571 2.32757H26.8645L30.4486 10.8621H8.27296L11.8571 2.32757ZM10.8903 24.0517H9.68023V21.7241H10.8903V24.0517ZM7.26017 21.7241H8.4702V24.0517H7.26017V21.7241ZM5.44513 31.0345H7.86518V29.4827H3.5956L5.7561 25.6034H11.4953V24.8276H12.1003V21.7241H15.7304V20.1724H10.2852V12.4138H28.4357V20.1724H22.9905V21.7241H26.6206V24.8276H27.2257V25.6034H32.9642L35.1247 29.4827H30.8557V31.0345H33.2758V47.3276H32.0658V45H30.8557V47.3276H26.0156V45H24.8056V47.3276H22.9905V34.9138H15.7304V47.3276H13.9153V45H12.7053V47.3276H7.86518V45H6.65516V47.3276H5.44513V31.0345ZM21.7805 47.3276H16.9404V36.4655H21.7805V47.3276Z" fill="#C8C8C8"/>
<path d="M19.3605 33.362C21.0285 33.362 22.3855 31.6218 22.3855 29.4827C22.3855 27.3437 21.0285 25.6034 19.3605 25.6034C17.6924 25.6034 16.3354 27.3437 16.3354 29.4827C16.3354 31.6218 17.6924 33.362 19.3605 33.362ZM17.6567 30.2586H18.7554V31.6676C18.243 31.4333 17.8395 30.9158 17.6567 30.2586ZM19.9655 31.6676V30.2586H21.0642C20.8815 30.9158 20.4779 31.4333 19.9655 31.6676ZM21.0642 28.7069H19.9655V27.2979C20.4779 27.5322 20.8815 28.0497 21.0642 28.7069ZM18.7554 27.2979V28.7069H17.6567C17.8395 28.0497 18.243 27.5322 18.7554 27.2979Z" fill="#C8C8C8"/>
<path d="M10.8903 30.2586H9.68023V40.3448H10.8903V30.2586Z" fill="#C8C8C8"/>
<path d="M29.0407 30.2586H27.8307V40.3448H29.0407V30.2586Z" fill="#C8C8C8"/>
<path d="M19.3605 41.1207H18.1504V42.6724H19.3605V41.1207Z" fill="#C8C8C8"/>
<path d="M27.2257 13.9655H23.5956V18.6207H27.2257V13.9655ZM26.0156 17.069H24.8056V15.5172H26.0156V17.069Z" fill="#C8C8C8"/>
<path d="M11.4953 18.6207H15.1254V13.9655H11.4953V18.6207ZM12.7053 15.5172H13.9153V17.069H12.7053V15.5172Z" fill="#C8C8C8"/>
<path d="M38.1159 47.3276H36.9059V48.8793H38.1159V47.3276Z" fill="#C8C8C8"/>
<path d="M1.81504 47.3276H0.605011V48.8793H1.81504V47.3276Z" fill="#C8C8C8"/>
<path d="M12.7053 45.7758H7.86518C6.86449 45.7758 6.05014 44.7315 6.05014 43.4482C6.05014 42.352 6.64426 41.4295 7.44167 41.1843C7.77504 40.2222 8.52949 39.5689 9.37772 39.5689C9.69414 39.5689 10.0021 39.6597 10.2852 39.8358C10.5684 39.6597 10.8763 39.5689 11.1928 39.5689C12.041 39.5689 12.7954 40.2222 13.1288 41.1843C13.9262 41.4295 14.5203 42.352 14.5203 43.4482C14.5203 44.7315 13.706 45.7758 12.7053 45.7758Z" fill="white"/>
<path d="M30.8557 45.7758H26.0156C25.0149 45.7758 24.2006 44.7315 24.2006 43.4482C24.2006 42.352 24.7947 41.4295 25.5921 41.1843C25.9255 40.2222 26.6799 39.5689 27.5282 39.5689C27.8446 39.5689 28.1525 39.6597 28.4357 39.8358C28.7188 39.6597 29.0268 39.5689 29.3432 39.5689C30.1914 39.5689 30.9459 40.2222 31.2793 41.1843C32.0767 41.4295 32.6708 42.352 32.6708 43.4482C32.6708 44.7315 31.8564 45.7758 30.8557 45.7758Z" fill="white"/>
<path d="M29.6366 31.8103H29.4473C29.0552 31.8103 28.6662 31.6435 28.3522 31.3417L19.3605 22.694L10.3681 31.3417C10.0547 31.6435 9.66631 31.8103 9.27366 31.8103H9.08429C8.07876 31.8103 7.26017 30.7606 7.26017 29.4711C7.26017 28.7542 7.52396 28.0645 7.96441 27.6246L17.9066 17.709C18.7337 16.8835 19.9873 16.8835 20.8149 17.709L30.7577 27.6253C31.197 28.0645 31.4608 28.755 31.4608 29.4711C31.4608 30.7606 30.6422 31.8103 29.6366 31.8103Z" fill="white"/>
</g>
<defs>
<clipPath id="clip0_2_87">
<rect width="38.7209" height="49.6552" fill="white"/>
</clipPath>
</defs>
</svg>
